<svg xmlns="http://www.w3.org/2000/svg" xmlns:xlink="http://www.w3.org/1999/xlink" width="180" zoomAndPan="magnify" viewBox="0 0 135 30.000001" height="40" preserveAspectRatio="xMidYMid meet" version="1.0"><defs><g/><clipPath id="id1"><path d="M 2.175781 8 L 16 8 L 16 21 L 2.175781 21 Z M 2.175781 8 " clip-rule="nonzero"/></clipPath><clipPath id="id2"><path d="M 122 8 L 132.820312 8 L 132.820312 22 L 122 22 Z M 122 8 " clip-rule="nonzero"/></clipPath></defs><g clip-path="url(#id1)"><g fill="#ffffff" fill-opacity="1"><g transform="translate(2.22278, 20.864887)"><g><path d="M 9.25 -2.328125 L 4.171875 -2.328125 L 3.21875 0 L -0.234375 0 L 5.0625 -12.015625 L 8.40625 -12.015625 L 13.71875 0 L 10.1875 0 Z M 8.25 -4.84375 L 6.703125 -8.6875 L 5.171875 -4.84375 Z M 8.25 -4.84375 "/></g></g></g></g><g fill="#ffffff" fill-opacity="1"><g transform="translate(15.700402, 20.864887)"><g><path d="M 5.828125 -4.359375 L 4.5625 -3 L 4.5625 0 L 1.203125 0 L 1.203125 -12.015625 L 4.5625 -12.015625 L 4.5625 -7.015625 L 9.21875 -12.015625 L 12.953125 -12.015625 L 8.046875 -6.6875 L 13.203125 0 L 9.265625 0 Z M 5.828125 -4.359375 "/></g></g></g><g fill="#ffffff" fill-opacity="1"><g transform="translate(28.595028, 20.864887)"><g><path d="M 9.25 -6.265625 L 12.25 -6.265625 L 12.25 -1.28125 C 11.5625 -0.789062 10.769531 -0.414062 9.875 -0.15625 C 8.988281 0.101562 8.097656 0.234375 7.203125 0.234375 C 5.941406 0.234375 4.804688 -0.03125 3.796875 -0.5625 C 2.796875 -1.09375 2.007812 -1.832031 1.4375 -2.78125 C 0.863281 -3.726562 0.578125 -4.800781 0.578125 -6 C 0.578125 -7.207031 0.863281 -8.285156 1.4375 -9.234375 C 2.007812 -10.179688 2.804688 -10.921875 3.828125 -11.453125 C 4.847656 -11.984375 6 -12.25 7.28125 -12.25 C 8.394531 -12.25 9.394531 -12.0625 10.28125 -11.6875 C 11.175781 -11.3125 11.925781 -10.765625 12.53125 -10.046875 L 10.359375 -8.09375 C 9.546875 -8.988281 8.578125 -9.4375 7.453125 -9.4375 C 6.421875 -9.4375 5.585938 -9.125 4.953125 -8.5 C 4.328125 -7.875 4.015625 -7.039062 4.015625 -6 C 4.015625 -5.34375 4.15625 -4.753906 4.4375 -4.234375 C 4.726562 -3.710938 5.128906 -3.304688 5.640625 -3.015625 C 6.160156 -2.722656 6.75 -2.578125 7.40625 -2.578125 C 8.0625 -2.578125 8.675781 -2.707031 9.25 -2.96875 Z M 9.25 -6.265625 "/></g></g></g><g fill="#ffffff" fill-opacity="1"><g transform="translate(41.798302, 20.864887)"><g><path d="M 10.84375 -2.625 L 10.84375 0 L 1.203125 0 L 1.203125 -12.015625 L 10.625 -12.015625 L 10.625 -9.390625 L 4.5625 -9.390625 L 4.5625 -7.359375 L 9.90625 -7.359375 L 9.90625 -4.828125 L 4.5625 -4.828125 L 4.5625 -2.625 Z M 10.84375 -2.625 "/></g></g></g><g fill="#ffffff" fill-opacity="1"><g transform="translate(53.321155, 20.864887)"><g><path d="M 7.1875 0.234375 C 5.925781 0.234375 4.796875 -0.03125 3.796875 -0.5625 C 2.796875 -1.09375 2.007812 -1.832031 1.4375 -2.78125 C 0.863281 -3.726562 0.578125 -4.800781 0.578125 -6 C 0.578125 -7.207031 0.863281 -8.285156 1.4375 -9.234375 C 2.007812 -10.179688 2.796875 -10.921875 3.796875 -11.453125 C 4.796875 -11.984375 5.925781 -12.25 7.1875 -12.25 C 8.28125 -12.25 9.269531 -12.050781 10.15625 -11.65625 C 11.039062 -11.269531 11.773438 -10.710938 12.359375 -9.984375 L 10.1875 -8.03125 C 9.414062 -8.96875 8.472656 -9.4375 7.359375 -9.4375 C 6.703125 -9.4375 6.117188 -9.289062 5.609375 -9 C 5.109375 -8.71875 4.71875 -8.316406 4.4375 -7.796875 C 4.15625 -7.273438 4.015625 -6.675781 4.015625 -6 C 4.015625 -5.332031 4.15625 -4.738281 4.4375 -4.21875 C 4.71875 -3.695312 5.109375 -3.289062 5.609375 -3 C 6.117188 -2.71875 6.703125 -2.578125 7.359375 -2.578125 C 8.472656 -2.578125 9.414062 -3.046875 10.1875 -3.984375 L 12.359375 -2.03125 C 11.773438 -1.289062 11.039062 -0.726562 10.15625 -0.34375 C 9.269531 0.0390625 8.28125 0.234375 7.1875 0.234375 Z M 7.1875 0.234375 "/></g></g></g><g fill="#ffffff" fill-opacity="1"><g transform="translate(65.975722, 20.864887)"><g/></g></g><g fill="#ffffff" fill-opacity="1"><g transform="translate(70.96553, 20.864887)"><g><path d="M 5.421875 0.234375 C 4.453125 0.234375 3.507812 0.113281 2.59375 -0.125 C 1.675781 -0.363281 0.929688 -0.679688 0.359375 -1.078125 L 1.46875 -3.578125 C 2.007812 -3.222656 2.632812 -2.9375 3.34375 -2.71875 C 4.050781 -2.507812 4.75 -2.40625 5.4375 -2.40625 C 6.738281 -2.40625 7.390625 -2.726562 7.390625 -3.375 C 7.390625 -3.71875 7.203125 -3.972656 6.828125 -4.140625 C 6.460938 -4.304688 5.867188 -4.484375 5.046875 -4.671875 C 4.140625 -4.859375 3.382812 -5.0625 2.78125 -5.28125 C 2.175781 -5.507812 1.65625 -5.867188 1.21875 -6.359375 C 0.78125 -6.859375 0.5625 -7.523438 0.5625 -8.359375 C 0.5625 -9.085938 0.757812 -9.742188 1.15625 -10.328125 C 1.5625 -10.921875 2.160156 -11.390625 2.953125 -11.734375 C 3.753906 -12.078125 4.734375 -12.25 5.890625 -12.25 C 6.671875 -12.25 7.445312 -12.160156 8.21875 -11.984375 C 8.988281 -11.804688 9.664062 -11.546875 10.25 -11.203125 L 9.203125 -8.6875 C 8.054688 -9.300781 6.945312 -9.609375 5.875 -9.609375 C 5.195312 -9.609375 4.703125 -9.503906 4.390625 -9.296875 C 4.078125 -9.097656 3.921875 -8.84375 3.921875 -8.53125 C 3.921875 -8.207031 4.101562 -7.960938 4.46875 -7.796875 C 4.84375 -7.640625 5.4375 -7.476562 6.25 -7.3125 C 7.164062 -7.113281 7.921875 -6.898438 8.515625 -6.671875 C 9.117188 -6.453125 9.640625 -6.097656 10.078125 -5.609375 C 10.515625 -5.128906 10.734375 -4.472656 10.734375 -3.640625 C 10.734375 -2.921875 10.53125 -2.269531 10.125 -1.6875 C 9.726562 -1.101562 9.128906 -0.632812 8.328125 -0.28125 C 7.535156 0.0625 6.566406 0.234375 5.421875 0.234375 Z M 5.421875 0.234375 "/></g></g></g><g fill="#ffffff" fill-opacity="1"><g transform="translate(82.059706, 20.864887)"><g><path d="M 5.828125 -4.359375 L 4.5625 -3 L 4.5625 0 L 1.203125 0 L 1.203125 -12.015625 L 4.5625 -12.015625 L 4.5625 -7.015625 L 9.21875 -12.015625 L 12.953125 -12.015625 L 8.046875 -6.6875 L 13.203125 0 L 9.265625 0 Z M 5.828125 -4.359375 "/></g></g></g><g fill="#ffffff" fill-opacity="1"><g transform="translate(94.954332, 20.864887)"><g><path d="M 1.203125 -12.015625 L 4.59375 -12.015625 L 4.59375 0 L 1.203125 0 Z M 1.203125 -12.015625 "/></g></g></g><g fill="#ffffff" fill-opacity="1"><g transform="translate(100.767196, 20.864887)"><g><path d="M 1.203125 -12.015625 L 4.59375 -12.015625 L 4.59375 -2.6875 L 10.328125 -2.6875 L 10.328125 0 L 1.203125 0 Z M 1.203125 -12.015625 "/></g></g></g><g fill="#ffffff" fill-opacity="1"><g transform="translate(111.226934, 20.864887)"><g><path d="M 1.203125 -12.015625 L 4.59375 -12.015625 L 4.59375 -2.6875 L 10.328125 -2.6875 L 10.328125 0 L 1.203125 0 Z M 1.203125 -12.015625 "/></g></g></g><g clip-path="url(#id2)"><g fill="#ffffff" fill-opacity="1"><g transform="translate(121.686671, 20.864887)"><g><path d="M 5.421875 0.234375 C 4.453125 0.234375 3.507812 0.113281 2.59375 -0.125 C 1.675781 -0.363281 0.929688 -0.679688 0.359375 -1.078125 L 1.46875 -3.578125 C 2.007812 -3.222656 2.632812 -2.9375 3.34375 -2.71875 C 4.050781 -2.507812 4.75 -2.40625 5.4375 -2.40625 C 6.738281 -2.40625 7.390625 -2.726562 7.390625 -3.375 C 7.390625 -3.71875 7.203125 -3.972656 6.828125 -4.140625 C 6.460938 -4.304688 5.867188 -4.484375 5.046875 -4.671875 C 4.140625 -4.859375 3.382812 -5.0625 2.78125 -5.28125 C 2.175781 -5.507812 1.65625 -5.867188 1.21875 -6.359375 C 0.78125 -6.859375 0.5625 -7.523438 0.5625 -8.359375 C 0.5625 -9.085938 0.757812 -9.742188 1.15625 -10.328125 C 1.5625 -10.921875 2.160156 -11.390625 2.953125 -11.734375 C 3.753906 -12.078125 4.734375 -12.25 5.890625 -12.25 C 6.671875 -12.25 7.445312 -12.160156 8.21875 -11.984375 C 8.988281 -11.804688 9.664062 -11.546875 10.25 -11.203125 L 9.203125 -8.6875 C 8.054688 -9.300781 6.945312 -9.609375 5.875 -9.609375 C 5.195312 -9.609375 4.703125 -9.503906 4.390625 -9.296875 C 4.078125 -9.097656 3.921875 -8.84375 3.921875 -8.53125 C 3.921875 -8.207031 4.101562 -7.960938 4.46875 -7.796875 C 4.84375 -7.640625 5.4375 -7.476562 6.25 -7.3125 C 7.164062 -7.113281 7.921875 -6.898438 8.515625 -6.671875 C 9.117188 -6.453125 9.640625 -6.097656 10.078125 -5.609375 C 10.515625 -5.128906 10.734375 -4.472656 10.734375 -3.640625 C 10.734375 -2.921875 10.53125 -2.269531 10.125 -1.6875 C 9.726562 -1.101562 9.128906 -0.632812 8.328125 -0.28125 C 7.535156 0.0625 6.566406 0.234375 5.421875 0.234375 Z M 5.421875 0.234375 "/></g></g></g></g></svg>